<?xml version="1.0" encoding="utf-8"?>
<!-- Generator: Adobe Illustrator 19.2.1, SVG Export Plug-In . SVG Version: 6.00 Build 0)  -->
<svg version="1.1" id="Layer_1" xmlns="http://www.w3.org/2000/svg" xmlns:xlink="http://www.w3.org/1999/xlink" x="0px" y="0px"
	 viewBox="0 0 800 800" style="enable-background:new 0 0 800 800;" xml:space="preserve">
<style type="text/css">
	.st0{fill:#FFFFFF;}
	.st1{opacity:0.5;fill:#FFFFFF;}
</style>
<g>
	<path class="st0" d="M553.8,141.3c-53.7,0-101,27-129.4,67.9c0,0-9.6,14.3-24.7,14.3c-15.1,0-24.7-14.3-24.7-14.3
		c-28.4-41-75.7-67.9-129.4-67.9c-86.7,0-157,70.2-157,157c0,20.5,4,40,11.1,57.9c18.5,57.4,64,119.1,115,171.8
		c7.8-20.3,11.9-42.3-0.8-51.4c-26.6-19.1-18-58.9-12.7-75c5.3-16.1,0.4-27,0.4-27c-16.5,51.7-38.3,46.1-38.3,46.1s0.4-39-7.9-53.6
		c-8.3-14.6-19.5-28.9-12-46.1c7.5-17.3,39.7-8.6,50.2-15.8c10.5-7.1,21.8-1.9,21.8-1.9c12.7-10.9,60.8-6,60.8-6s48-4.9,60.7,6
		c0,0,11.3-5.2,21.8,1.9c10.5,7.1,42.8-1.5,50.3,15.8c7.5,17.2-3.8,31.5-12,46.1c-8.3,14.6-7.9,53.6-7.9,53.6s-21.8,5.6-38.3-46.1
		c0,0-4.9,10.9,0.4,27c5.2,16.1,13.9,55.9-12.8,75c-19,13.6,17.5,117.9,40,176.6c8.2,3.4,15.4,5.5,21.3,6.1
		c3.1-0.3,6.6-1.1,10.4-2.2c76-111.2,56.1-170.7,56.1-170.7s-8.8-14.7-27.9-12.2l2.8-3.8l-10.3-0.6l7.2-8.8h-7.2l6-7.2l-15.3-2.8
		l6.3-4.7l-5-5c0,0,13.1-3.8,12.2-19.1c-0.7-11.1-0.5-23.6,3.5-34.6c1.5-4.2-4.2-61.2-0.1-67.5c4.6-7.1,45.4,32.2,45.4,32.2
		s8.5-9.1,41.6-9.1c33.2,0,41.6,9.1,41.6,9.1s40.8-39.3,45.4-32.2c4.1,6.3-1.6,63.3-0.1,67.5c4.1,11,4.2,23.5,3.5,34.6
		c-0.9,15.3,12.2,19.1,12.2,19.1l-5,5l6.3,4.7l-15.3,2.8l5.9,7.2l-7.2,0l7.2,8.8l-10.3,0.6l2.8,3.8c-19.1-2.5-27.9,12.2-27.9,12.2
		s-3.8,16.1,1.1,40.7c50.6-52.4,95.6-113.7,114-170.8c7.2-17.9,11.2-37.4,11.2-57.9C710.8,211.5,640.5,141.3,553.8,141.3z"/>
	<path class="st1" d="M466.2,486.3c0,0-8.8-14.7-27.9-12.2l2.8-3.8l-10.3-0.6l7.2-8.8h-7.2l6-7.2l-15.3-2.8l6.3-4.7l-5-5
		c0,0,13.1-3.8,12.2-19.1c-0.7-11.1-0.5-23.6,3.5-34.6c1-2.6-0.9-25.4-1.4-43.9l-46,46c-2,15.2-1.9,31-1.9,31s-8.9,2.3-19.6-9.5
		l-13.3,13.3c2,17.9-0.1,39.5-17.7,52.1c-19,13.6,17.5,117.9,40,176.6c8.2,3.4,15.4,5.5,21.3,6.1c3.1-0.3,6.6-1.1,10.4-2.2
		C486.1,545.8,466.2,486.3,466.2,486.3z"/>
	<path class="st1" d="M699.6,356.2c7.2-17.9,11.2-37.4,11.2-57.9c0-61.9-35.7-115.3-87.6-140.9L454,326.6
		c13.2,9.7,29.7,25.7,29.7,25.7s8.5-9.1,41.6-9.1c33.2,0,41.6,9.1,41.6,9.1s40.8-39.3,45.4-32.2c4.1,6.3-1.6,63.3-0.1,67.5
		c4.1,11,4.2,23.5,3.5,34.6c-0.9,15.3,12.2,19.1,12.2,19.1l-5,5l6.3,4.7l-15.3,2.8l5.9,7.2l-7.2,0l7.2,8.8l-10.3,0.6l2.8,3.8
		c-19.1-2.5-27.9,12.2-27.9,12.2s-3.8,16.1,1.1,40.7C636.2,474.6,681.2,413.3,699.6,356.2z"/>
</g>
</svg>
